<svg width="80" height="77" viewBox="0 0 80 77" fill="none" xmlns="http://www.w3.org/2000/svg">
<path d="M19.3572 60.9373C19.3572 62.28 19.8877 63.5676 20.8321 64.517C21.7765 65.4664 23.0573 65.9998 24.3929 65.9998H54.6072C55.9427 65.9998 57.2236 65.4664 58.168 64.517C59.1123 63.5676 59.6429 62.28 59.6429 60.9373V25.4998H19.3572V60.9373ZM47.8929 33.9373C47.8929 33.4898 48.0697 33.0605 48.3845 32.7441C48.6993 32.4276 49.1263 32.2498 49.5715 32.2498C50.0166 32.2498 50.4436 32.4276 50.7584 32.7441C51.0732 33.0605 51.25 33.4898 51.25 33.9373V57.5623C51.25 58.0099 51.0732 58.4391 50.7584 58.7556C50.4436 59.072 50.0166 59.2498 49.5715 59.2498C49.1263 59.2498 48.6993 59.072 48.3845 58.7556C48.0697 58.4391 47.8929 58.0099 47.8929 57.5623V33.9373ZM37.8215 33.9373C37.8215 33.4898 37.9983 33.0605 38.3131 32.7441C38.6279 32.4276 39.0548 32.2498 39.5 32.2498C39.9452 32.2498 40.3722 32.4276 40.687 32.7441C41.0018 33.0605 41.1786 33.4898 41.1786 33.9373V57.5623C41.1786 58.0099 41.0018 58.4391 40.687 58.7556C40.3722 59.072 39.9452 59.2498 39.5 59.2498C39.0548 59.2498 38.6279 59.072 38.3131 58.7556C37.9983 58.4391 37.8215 58.0099 37.8215 57.5623V33.9373ZM27.75 33.9373C27.75 33.4898 27.9269 33.0605 28.2417 32.7441C28.5565 32.4276 28.9834 32.2498 29.4286 32.2498C29.8738 32.2498 30.3007 32.4276 30.6155 32.7441C30.9303 33.0605 31.1072 33.4898 31.1072 33.9373V57.5623C31.1072 58.0099 30.9303 58.4391 30.6155 58.7556C30.3007 59.072 29.8738 59.2498 29.4286 59.2498C28.9834 59.2498 28.5565 59.072 28.2417 58.7556C27.9269 58.4391 27.75 58.0099 27.75 57.5623V33.9373Z" fill="white"/>
<path d="M48.7321 15.3748H61.3214C61.7666 15.3748 62.1936 15.5526 62.5084 15.8691C62.8232 16.1856 63 16.6148 63 17.0623V20.4373C63 20.8849 62.8232 21.3141 62.5084 21.6306C62.1936 21.947 61.7666 22.1248 61.3214 22.1248H17.6786C17.2334 22.1248 16.8064 21.947 16.4916 21.6306C16.1768 21.3141 16 20.8849 16 20.4373V17.0623C16 16.6148 16.1768 16.1856 16.4916 15.8691C16.8064 15.5526 17.2334 15.3748 17.6786 15.3748H30.2679L31.254 13.4026C31.4594 12.9804 31.7789 12.6248 32.176 12.3767C32.573 12.1287 33.0316 11.998 33.4991 11.9998H45.4904C45.959 11.9995 46.4183 12.1306 46.8168 12.3784C47.2153 12.6262 47.5371 12.9809 47.746 13.4026L48.7321 15.3748Z" fill="white"/>
</svg>
